<?xml version="1.0" encoding="UTF-8"?>
<svg id="b" data-name="Layer 2" xmlns="http://www.w3.org/2000/svg" viewBox="0 0 502.48 502.48">
  <defs>
    <style>
      .d {
        fill: #310063;
      }
    </style>
  </defs>
  <g id="c" data-name="ëÎÓÈ 1">
    <g>
      <path class="d" d="M365.26,319.79c56.98-78.82,50.01-189.85-20.92-260.79-78.67-78.67-206.67-78.67-285.34,0-78.67,78.67-78.67,206.67,0,285.34,70.93,70.93,181.96,77.9,260.79,20.92l127.81,127.81c12.56,12.56,32.92,12.56,45.47,0h0c12.56-12.56,12.56-32.92,0-45.47l-127.81-127.81ZM88.81,314.53c-62.23-62.23-62.23-163.49,0-225.72,62.23-62.23,163.49-62.23,225.72,0,62.23,62.23,62.23,163.49,0,225.72-62.23,62.23-163.49,62.23-225.72,0Z"/>
      <path class="d" d="M86.7,196.69c-.61,0-1.23-.04-1.86-.14-6.83-1.02-11.54-7.38-10.52-14.2,4.07-27.38,16.59-52.21,36.2-71.82,19.61-19.61,44.44-32.13,71.82-36.2,6.83-1.02,13.19,3.7,14.2,10.52,1.02,6.83-3.7,13.19-10.52,14.2-22.04,3.28-42.03,13.36-57.82,29.15-15.79,15.79-25.87,35.79-29.15,57.82-.92,6.2-6.26,10.66-12.35,10.66Z"/>
    </g>
  </g>
</svg>